<?xml version="1.0"?>
<svg width="16" height="16" xmlns="http://www.w3.org/2000/svg" xmlns:svg="http://www.w3.org/2000/svg" class="bi bi-facebook">
 <g class="layer">
  <title>Layer 1</title>
  <path d="m16,8.05c0,-4.45 -3.58,-8.05 -8,-8.05c-4.42,0 -8,3.6 -8,8.05c0,4.02 2.92,7.35 6.75,7.95l0,-5.62l-2.03,0l0,-2.33l2.03,0l0,-1.77c0,-2.02 1.2,-3.14 3.02,-3.14c0.88,0 1.79,0.16 1.79,0.16l0,1.98l-1.01,0c-0.99,0 -1.3,0.62 -1.3,1.26l0,1.51l2.22,0l-0.35,2.33l-1.87,0l0,5.62c3.82,-0.6 6.75,-3.93 6.75,-7.95" fill="#3b5998" id="svg_1"/>
 </g>
</svg>