<?xml version="1.0"?>
<svg width="16" height="16" xmlns="http://www.w3.org/2000/svg" xmlns:svg="http://www.w3.org/2000/svg" class="bi bi-instagram">
 <g class="layer">
  <title>Layer 1</title>
  <path d="m8,0c-2.17,0 -2.44,0.01 -3.3,0.05c-0.85,0.04 -1.43,0.17 -1.94,0.37a3.9,3.9 0 0 0 -1.42,0.92a3.9,3.9 0 0 0 -0.92,1.42c-0.2,0.51 -0.33,1.09 -0.37,1.94c-0.04,0.85 -0.05,1.13 -0.05,3.3c0,2.17 0.01,2.45 0.05,3.3c0.04,0.85 0.17,1.43 0.37,1.94c0.21,0.53 0.48,0.97 0.92,1.42c0.45,0.44 0.89,0.72 1.42,0.92c0.51,0.2 1.09,0.33 1.94,0.37c0.85,0.04 1.13,0.05 3.3,0.05s2.44,-0.01 3.3,-0.05c0.85,-0.04 1.43,-0.17 1.94,-0.37a3.9,3.9 0 0 0 1.42,-0.92c0.44,-0.45 0.72,-0.89 0.92,-1.42c0.2,-0.51 0.33,-1.09 0.37,-1.94c0.04,-0.85 0.05,-1.13 0.05,-3.3s-0.01,-2.45 -0.05,-3.3c-0.04,-0.85 -0.17,-1.43 -0.37,-1.94a3.9,3.9 0 0 0 -0.92,-1.42a3.9,3.9 0 0 0 -1.42,-0.92c-0.51,-0.2 -1.09,-0.33 -1.94,-0.37c-0.86,-0.04 -1.13,-0.05 -3.3,-0.05zm-0.72,1.44l0.72,0c2.14,0 2.39,0.01 3.23,0.05c0.78,0.03 1.21,0.16 1.49,0.27c0.37,0.15 0.64,0.32 0.92,0.6s0.45,0.55 0.6,0.92c0.11,0.28 0.24,0.71 0.27,1.49c0.04,0.84 0.05,1.09 0.05,3.23s-0.01,2.39 -0.05,3.23c-0.03,0.78 -0.16,1.2 -0.27,1.48a2.5,2.5 0 0 1 -0.6,0.92c-0.28,0.28 -0.55,0.46 -0.92,0.6c-0.28,0.11 -0.71,0.24 -1.49,0.28c-0.84,0.04 -1.09,0.05 -3.23,0.05s-2.39,-0.01 -3.23,-0.05c-0.78,-0.04 -1.2,-0.17 -1.49,-0.28a2.5,2.5 0 0 1 -0.92,-0.6a2.5,2.5 0 0 1 -0.6,-0.92c-0.11,-0.28 -0.24,-0.7 -0.27,-1.48c-0.04,-0.84 -0.05,-1.1 -0.05,-3.23s0.01,-2.39 0.05,-3.23c0.03,-0.78 0.16,-1.21 0.27,-1.49c0.15,-0.37 0.32,-0.64 0.6,-0.92s0.55,-0.45 0.92,-0.6c0.29,-0.11 0.71,-0.24 1.49,-0.27c0.74,-0.04 1.02,-0.05 2.51,-0.05zm4.99,1.33a0.96,0.96 0 1 0 0,1.92a0.96,0.96 0 0 0 0,-1.92m-4.27,1.12a4.11,4.11 0 1 0 0,8.22a4.11,4.11 0 0 0 0,-8.22m0,1.44a2.67,2.67 0 1 1 0,5.34a2.67,2.67 0 0 1 0,-5.34" fill="#e1306c" id="svg_1"/>
 </g>
</svg>